<svg width="116" height="116" viewBox="0 0 116 116" fill="none" xmlns="http://www.w3.org/2000/svg">
<g filter="url(#filter0_d_30_547)">
<path d="M55.0332 22.3026C55.1016 20.883 56.9515 20.3873 57.7206 21.5825C58.2091 22.3417 59.2625 22.4804 59.9309 21.8735C60.9831 20.9181 62.6417 21.8757 62.3404 23.2646C62.149 24.1469 62.7958 24.9899 63.6976 25.0333C65.1172 25.1018 65.6129 26.9517 64.4177 27.7208C63.6584 28.2093 63.5198 29.2627 64.1267 29.9311C65.0821 30.9833 64.1245 32.6419 62.7356 32.3406C61.8533 32.1492 61.0103 32.796 60.9668 33.6978C60.8984 35.1174 59.0485 35.6131 58.2794 34.4178C57.7909 33.6586 56.7375 33.5199 56.0691 34.1268C55.0169 35.0823 53.3583 34.1247 53.6596 32.7357C53.851 31.8534 53.2042 31.0105 52.3024 30.967C50.8828 30.8986 50.3871 29.0487 51.5823 28.2796C52.3416 27.7911 52.4802 26.7377 51.8733 26.0693C50.9179 25.017 51.8755 23.3585 53.2644 23.6598C54.1467 23.8512 54.9897 23.2044 55.0332 22.3026Z" fill="white"/>
</g>
<path d="M55.4592 23.2318C55.5172 22.0292 57.0843 21.6093 57.7359 22.6218C58.1497 23.265 59.0421 23.3825 59.6084 22.8683C60.4998 22.0589 61.9048 22.8701 61.6496 24.0468C61.4874 24.7943 62.0354 25.5084 62.7993 25.5452C64.002 25.6032 64.4219 27.1704 63.4094 27.8219C62.7662 28.2358 62.6487 29.1282 63.1628 29.6944C63.9723 30.5858 63.161 31.9909 61.9844 31.7356C61.2369 31.5735 60.5228 32.1214 60.486 32.8854C60.428 34.088 58.8608 34.5079 58.2093 33.4954C57.7954 32.8522 56.903 32.7347 56.3368 33.2489C55.4454 34.0583 54.0403 33.2471 54.2956 32.0704C54.4577 31.3229 53.9098 30.6088 53.1458 30.572C51.9432 30.514 51.5232 28.9469 52.5358 28.2953C53.179 27.8815 53.2964 26.989 52.7823 26.4228C51.9729 25.5314 52.7841 24.1263 53.9608 24.3816C54.7082 24.5437 55.4223 23.9958 55.4592 23.2318Z" fill="#F65606"/>
<defs>
<filter id="filter0_d_30_547" x="0.910156" y="0.910156" width="114.18" height="114.18" filterUnits="userSpaceOnUse" color-interpolation-filters="sRGB">
<feFlood flood-opacity="0" result="BackgroundImageFix"/>
<feColorMatrix in="SourceAlpha" type="matrix" values="0 0 0 0 0 0 0 0 0 0 0 0 0 0 0 0 0 0 127 0" result="hardAlpha"/>
<feOffset dy="30"/>
<feGaussianBlur stdDeviation="25"/>
<feComposite in2="hardAlpha" operator="out"/>
<feColorMatrix type="matrix" values="0 0 0 0 0 0 0 0 0 0 0 0 0 0 0 0 0 0 0.15 0"/>
<feBlend mode="normal" in2="BackgroundImageFix" result="effect1_dropShadow_30_547"/>
<feBlend mode="normal" in="SourceGraphic" in2="effect1_dropShadow_30_547" result="shape"/>
</filter>
</defs>
</svg>
